# xmcd CD database file generated by OrangeCD 6.0
#
# Track frame offsets:
#	79845
#	99385
#	121975
#	145397
#	167755
#
# Disc length: 3003 seconds
#
# Revision: 3
# Processed by: cddbd v1.5.2PL0 Copyright (c) Steve Scherf et al.
# Submitted via: OrangeCD 6.0
#
DISCID=47079305
DTITLE=John Hiatt - Selections from the album Walk On
DYEAR=1995
DGENRE=Rock
TTITLE0=Cry Love
TTITLE1=You Must Go
TTITLE2=Walk On
TTITLE3=Thing Called Love (Live Acoustic)
TTITLE4=John Hiatt Interview
EXTD=has multimedia content YEAR: 1995
EXTT0=
EXTT1=
EXTT2=
EXTT3=
EXTT4=
PLAYORDER=
